<mxfile host="app.diagrams.net" agent="Mozilla/5.0 (Windows NT 10.0; Win64; x64) AppleWebKit/537.36 (KHTML, like Gecko) Chrome/131.0.0.0 Safari/537.36 OPR/116.0.0.0 (Edition std-2)" version="26.0.14">
  <diagram name="Página-1" id="DPgGOrRigE_r_vZPe1qE">
    <mxGraphModel dx="1197" dy="696" grid="0" gridSize="10" guides="1" tooltips="1" connect="1" arrows="1" fold="1" page="1" pageScale="1" pageWidth="827" pageHeight="1169" math="0" shadow="0">
      <root>
        <mxCell id="0" />
        <mxCell id="1" parent="0" />
        <mxCell id="52OOqzTCsj2IzXVD1Yqi-6" style="edgeStyle=orthogonalEdgeStyle;rounded=0;orthogonalLoop=1;jettySize=auto;html=1;exitX=0.5;exitY=1;exitDx=0;exitDy=0;entryX=0.5;entryY=0;entryDx=0;entryDy=0;" parent="1" source="52OOqzTCsj2IzXVD1Yqi-1" target="52OOqzTCsj2IzXVD1Yqi-5" edge="1">
          <mxGeometry relative="1" as="geometry" />
        </mxCell>
        <mxCell id="52OOqzTCsj2IzXVD1Yqi-1" value="" style="ellipse;whiteSpace=wrap;html=1;aspect=fixed;fillColor=light-dark(#080707, #ededed);" parent="1" vertex="1">
          <mxGeometry x="348" y="98" width="37" height="37" as="geometry" />
        </mxCell>
        <mxCell id="52OOqzTCsj2IzXVD1Yqi-3" value="&lt;b&gt;&lt;font style=&quot;font-size: 16px;&quot;&gt;Caso de uso: Catalogação de vacinas&lt;/font&gt;&lt;/b&gt;" style="text;html=1;align=center;verticalAlign=middle;whiteSpace=wrap;rounded=0;" parent="1" vertex="1">
          <mxGeometry x="78" y="19" width="324" height="30" as="geometry" />
        </mxCell>
        <mxCell id="52OOqzTCsj2IzXVD1Yqi-8" style="edgeStyle=orthogonalEdgeStyle;rounded=0;orthogonalLoop=1;jettySize=auto;html=1;exitX=0.5;exitY=1;exitDx=0;exitDy=0;" parent="1" source="52OOqzTCsj2IzXVD1Yqi-5" edge="1">
          <mxGeometry relative="1" as="geometry">
            <mxPoint x="367" y="298" as="targetPoint" />
          </mxGeometry>
        </mxCell>
        <mxCell id="52OOqzTCsj2IzXVD1Yqi-5" value="" style="rounded=0;whiteSpace=wrap;html=1;" parent="1" vertex="1">
          <mxGeometry x="301" y="186" width="132" height="60" as="geometry" />
        </mxCell>
        <mxCell id="52OOqzTCsj2IzXVD1Yqi-7" value="O profissional acessa o módulo de catalogação de vacinas&amp;nbsp;" style="text;html=1;align=left;verticalAlign=middle;whiteSpace=wrap;rounded=0;" parent="1" vertex="1">
          <mxGeometry x="303" y="190.5" width="128" height="51" as="geometry" />
        </mxCell>
        <mxCell id="zIkARTVcFvb6Yfh4uVHm-3" style="edgeStyle=orthogonalEdgeStyle;rounded=0;orthogonalLoop=1;jettySize=auto;html=1;entryX=0.5;entryY=0;entryDx=0;entryDy=0;" edge="1" parent="1" source="52OOqzTCsj2IzXVD1Yqi-9" target="zIkARTVcFvb6Yfh4uVHm-1">
          <mxGeometry relative="1" as="geometry" />
        </mxCell>
        <mxCell id="52OOqzTCsj2IzXVD1Yqi-9" value="" style="whiteSpace=wrap;html=1;" parent="1" vertex="1">
          <mxGeometry x="294" y="299" width="145" height="58" as="geometry" />
        </mxCell>
        <mxCell id="52OOqzTCsj2IzXVD1Yqi-12" value="Insere as informações da vacina" style="text;html=1;align=center;verticalAlign=middle;whiteSpace=wrap;rounded=0;" parent="1" vertex="1">
          <mxGeometry x="315.5" y="313" width="102" height="30" as="geometry" />
        </mxCell>
        <mxCell id="zIkARTVcFvb6Yfh4uVHm-5" style="edgeStyle=orthogonalEdgeStyle;rounded=0;orthogonalLoop=1;jettySize=auto;html=1;" edge="1" parent="1" source="zIkARTVcFvb6Yfh4uVHm-1">
          <mxGeometry relative="1" as="geometry">
            <mxPoint x="367" y="546" as="targetPoint" />
          </mxGeometry>
        </mxCell>
        <mxCell id="zIkARTVcFvb6Yfh4uVHm-1" value="" style="rounded=0;whiteSpace=wrap;html=1;" vertex="1" parent="1">
          <mxGeometry x="281" y="414" width="172" height="70" as="geometry" />
        </mxCell>
        <mxCell id="zIkARTVcFvb6Yfh4uVHm-2" value="Sistema verifica se vacina existe e se todos os dados foram informados corretamente" style="text;html=1;align=center;verticalAlign=middle;whiteSpace=wrap;rounded=0;" vertex="1" parent="1">
          <mxGeometry x="281" y="437" width="172" height="15" as="geometry" />
        </mxCell>
        <mxCell id="zIkARTVcFvb6Yfh4uVHm-8" style="edgeStyle=orthogonalEdgeStyle;rounded=0;orthogonalLoop=1;jettySize=auto;html=1;exitX=1;exitY=0.5;exitDx=0;exitDy=0;" edge="1" parent="1" source="zIkARTVcFvb6Yfh4uVHm-6">
          <mxGeometry relative="1" as="geometry">
            <mxPoint x="476" y="574" as="targetPoint" />
          </mxGeometry>
        </mxCell>
        <mxCell id="zIkARTVcFvb6Yfh4uVHm-9" style="edgeStyle=orthogonalEdgeStyle;rounded=0;orthogonalLoop=1;jettySize=auto;html=1;exitX=0;exitY=0.5;exitDx=0;exitDy=0;" edge="1" parent="1" source="zIkARTVcFvb6Yfh4uVHm-6">
          <mxGeometry relative="1" as="geometry">
            <mxPoint x="257" y="574" as="targetPoint" />
          </mxGeometry>
        </mxCell>
        <mxCell id="zIkARTVcFvb6Yfh4uVHm-6" value="" style="rhombus;whiteSpace=wrap;html=1;" vertex="1" parent="1">
          <mxGeometry x="358.5" y="545" width="17" height="19" as="geometry" />
        </mxCell>
        <mxCell id="zIkARTVcFvb6Yfh4uVHm-19" style="edgeStyle=orthogonalEdgeStyle;rounded=0;orthogonalLoop=1;jettySize=auto;html=1;exitX=0.5;exitY=1;exitDx=0;exitDy=0;entryX=0;entryY=0.5;entryDx=0;entryDy=0;" edge="1" parent="1" source="zIkARTVcFvb6Yfh4uVHm-10" target="zIkARTVcFvb6Yfh4uVHm-18">
          <mxGeometry relative="1" as="geometry" />
        </mxCell>
        <mxCell id="zIkARTVcFvb6Yfh4uVHm-10" value="" style="rounded=0;whiteSpace=wrap;html=1;" vertex="1" parent="1">
          <mxGeometry x="190" y="573" width="125.5" height="60" as="geometry" />
        </mxCell>
        <mxCell id="zIkARTVcFvb6Yfh4uVHm-21" style="edgeStyle=orthogonalEdgeStyle;rounded=0;orthogonalLoop=1;jettySize=auto;html=1;entryX=1;entryY=0.5;entryDx=0;entryDy=0;" edge="1" parent="1" target="zIkARTVcFvb6Yfh4uVHm-18">
          <mxGeometry relative="1" as="geometry">
            <mxPoint x="479" y="634" as="sourcePoint" />
            <Array as="points">
              <mxPoint x="479" y="694" />
            </Array>
          </mxGeometry>
        </mxCell>
        <mxCell id="zIkARTVcFvb6Yfh4uVHm-11" value="" style="rounded=0;whiteSpace=wrap;html=1;" vertex="1" parent="1">
          <mxGeometry x="402" y="573" width="151" height="60" as="geometry" />
        </mxCell>
        <mxCell id="zIkARTVcFvb6Yfh4uVHm-12" value="else" style="text;html=1;align=center;verticalAlign=middle;whiteSpace=wrap;rounded=0;" vertex="1" parent="1">
          <mxGeometry x="431" y="536" width="44" height="17" as="geometry" />
        </mxCell>
        <mxCell id="zIkARTVcFvb6Yfh4uVHm-14" value="Sistema valida&amp;nbsp; e armazena as informações da vacina" style="text;html=1;align=center;verticalAlign=middle;whiteSpace=wrap;rounded=0;" vertex="1" parent="1">
          <mxGeometry x="183.25" y="588" width="139" height="30" as="geometry" />
        </mxCell>
        <mxCell id="zIkARTVcFvb6Yfh4uVHm-15" value="Sistema informa mensagem indicando que não foi possível catalogar nova vacina" style="text;html=1;align=center;verticalAlign=middle;whiteSpace=wrap;rounded=0;" vertex="1" parent="1">
          <mxGeometry x="399.5" y="588" width="156" height="30" as="geometry" />
        </mxCell>
        <mxCell id="zIkARTVcFvb6Yfh4uVHm-22" style="edgeStyle=orthogonalEdgeStyle;rounded=0;orthogonalLoop=1;jettySize=auto;html=1;exitX=0.5;exitY=1;exitDx=0;exitDy=0;" edge="1" parent="1" source="zIkARTVcFvb6Yfh4uVHm-18">
          <mxGeometry relative="1" as="geometry">
            <mxPoint x="366.16666666666674" y="754" as="targetPoint" />
          </mxGeometry>
        </mxCell>
        <mxCell id="zIkARTVcFvb6Yfh4uVHm-18" value="" style="rhombus;whiteSpace=wrap;html=1;" vertex="1" parent="1">
          <mxGeometry x="358" y="685" width="17" height="19" as="geometry" />
        </mxCell>
        <mxCell id="zIkARTVcFvb6Yfh4uVHm-27" style="edgeStyle=orthogonalEdgeStyle;rounded=0;orthogonalLoop=1;jettySize=auto;html=1;" edge="1" parent="1" source="zIkARTVcFvb6Yfh4uVHm-25">
          <mxGeometry relative="1" as="geometry">
            <mxPoint x="280" y="799" as="targetPoint" />
          </mxGeometry>
        </mxCell>
        <mxCell id="zIkARTVcFvb6Yfh4uVHm-28" style="edgeStyle=orthogonalEdgeStyle;rounded=0;orthogonalLoop=1;jettySize=auto;html=1;" edge="1" parent="1" source="zIkARTVcFvb6Yfh4uVHm-25">
          <mxGeometry relative="1" as="geometry">
            <mxPoint x="458" y="800" as="targetPoint" />
          </mxGeometry>
        </mxCell>
        <mxCell id="zIkARTVcFvb6Yfh4uVHm-25" value="" style="line;strokeWidth=8;fillColor=none;align=left;verticalAlign=middle;spacingTop=-1;spacingLeft=3;spacingRight=3;rotatable=0;labelPosition=right;points=[];portConstraint=eastwest;strokeColor=inherit;" vertex="1" parent="1">
          <mxGeometry x="331.5" y="753" width="68" height="8" as="geometry" />
        </mxCell>
        <mxCell id="zIkARTVcFvb6Yfh4uVHm-26" value="" style="line;strokeWidth=8;fillColor=none;align=left;verticalAlign=middle;spacingTop=-1;spacingLeft=3;spacingRight=3;rotatable=0;labelPosition=right;points=[];portConstraint=eastwest;strokeColor=inherit;" vertex="1" parent="1">
          <mxGeometry x="332.5" y="900" width="68" height="25" as="geometry" />
        </mxCell>
        <mxCell id="zIkARTVcFvb6Yfh4uVHm-33" style="edgeStyle=orthogonalEdgeStyle;rounded=0;orthogonalLoop=1;jettySize=auto;html=1;exitX=0.5;exitY=1;exitDx=0;exitDy=0;" edge="1" parent="1" source="zIkARTVcFvb6Yfh4uVHm-29" target="zIkARTVcFvb6Yfh4uVHm-26">
          <mxGeometry relative="1" as="geometry" />
        </mxCell>
        <mxCell id="zIkARTVcFvb6Yfh4uVHm-29" value="" style="rounded=0;whiteSpace=wrap;html=1;" vertex="1" parent="1">
          <mxGeometry x="211.5" y="797" width="120" height="60" as="geometry" />
        </mxCell>
        <mxCell id="zIkARTVcFvb6Yfh4uVHm-30" value="Vacina disponível no registro de aplicação&amp;nbsp;" style="text;html=1;align=center;verticalAlign=middle;whiteSpace=wrap;rounded=0;" vertex="1" parent="1">
          <mxGeometry x="214.5" y="812" width="114" height="30" as="geometry" />
        </mxCell>
        <mxCell id="zIkARTVcFvb6Yfh4uVHm-31" value="" style="rounded=0;whiteSpace=wrap;html=1;" vertex="1" parent="1">
          <mxGeometry x="402" y="797" width="120" height="60" as="geometry" />
        </mxCell>
        <mxCell id="zIkARTVcFvb6Yfh4uVHm-32" value="Retorna à atividade de preenchimento de dados" style="text;html=1;align=center;verticalAlign=middle;whiteSpace=wrap;rounded=0;" vertex="1" parent="1">
          <mxGeometry x="405" y="812" width="114" height="30" as="geometry" />
        </mxCell>
        <mxCell id="zIkARTVcFvb6Yfh4uVHm-36" style="edgeStyle=orthogonalEdgeStyle;rounded=0;orthogonalLoop=1;jettySize=auto;html=1;entryX=0.998;entryY=0.493;entryDx=0;entryDy=0;entryPerimeter=0;" edge="1" parent="1" source="zIkARTVcFvb6Yfh4uVHm-31" target="zIkARTVcFvb6Yfh4uVHm-26">
          <mxGeometry relative="1" as="geometry" />
        </mxCell>
        <mxCell id="zIkARTVcFvb6Yfh4uVHm-40" style="edgeStyle=orthogonalEdgeStyle;rounded=0;orthogonalLoop=1;jettySize=auto;html=1;" edge="1" parent="1" source="zIkARTVcFvb6Yfh4uVHm-37">
          <mxGeometry relative="1" as="geometry">
            <mxPoint x="365.5" y="1063.7142857142858" as="targetPoint" />
          </mxGeometry>
        </mxCell>
        <mxCell id="zIkARTVcFvb6Yfh4uVHm-37" value="" style="rounded=0;whiteSpace=wrap;html=1;" vertex="1" parent="1">
          <mxGeometry x="313" y="957" width="105" height="49" as="geometry" />
        </mxCell>
        <mxCell id="zIkARTVcFvb6Yfh4uVHm-38" value="" style="endArrow=classic;html=1;rounded=0;" edge="1" parent="1">
          <mxGeometry width="50" height="50" relative="1" as="geometry">
            <mxPoint x="365" y="916" as="sourcePoint" />
            <mxPoint x="365" y="957" as="targetPoint" />
          </mxGeometry>
        </mxCell>
        <mxCell id="zIkARTVcFvb6Yfh4uVHm-39" value="Tarefa finalizada" style="text;html=1;align=center;verticalAlign=middle;whiteSpace=wrap;rounded=0;" vertex="1" parent="1">
          <mxGeometry x="335.5" y="966.5" width="60" height="30" as="geometry" />
        </mxCell>
        <mxCell id="zIkARTVcFvb6Yfh4uVHm-49" value="" style="ellipse;html=1;shape=endState;fillColor=#000000;strokeColor=light-dark(#000000,#FF9090);" vertex="1" parent="1">
          <mxGeometry x="347.5" y="1064" width="36" height="38" as="geometry" />
        </mxCell>
      </root>
    </mxGraphModel>
  </diagram>
</mxfile>
